<svg width="21" height="20" viewBox="0 0 21 20" fill="none" xmlns="http://www.w3.org/2000/svg">
<path d="M14.0763 5.74019C14.5071 5.34881 14.8421 4.82697 15.0335 4.30514C15.2249 3.65284 15.2249 2.95706 15.1771 2.26128C15.1292 1.65248 15.0814 1.00018 15.3685 0.434863C15.4642 0.217431 15.6078 0.0869725 15.7035 0C15.7035 0 15.6557 -6.64196e-07 15.6078 0.0434856C13.9327 0.565321 12.3534 1.82642 11.9227 3.43541C11.6834 4.39211 11.8748 5.17486 11.9705 5.47927C12.0184 5.56624 12.0663 5.91413 12.4013 6.56642C12.4491 6.6534 12.7363 6.9578 12.6884 7.04477C13.0234 6.47945 13.5977 6.13156 14.0763 5.74019Z" fill="#89896E"/>
<path d="M11.9226 7.91445C12.0183 7.34913 11.9226 6.78381 11.7312 6.26197C11.444 5.60968 10.9654 5.08785 10.4868 4.56601C10.0561 4.08766 9.52966 3.60931 9.38608 3.0005C9.33822 2.78307 9.33822 2.60913 9.33822 2.47867C9.33822 2.47867 9.29037 2.52215 9.29037 2.56564C8.28534 3.91371 7.90246 5.78363 8.6682 7.30565C9.09893 8.17537 9.81681 8.6972 10.0561 8.87115C10.1518 8.91463 10.439 9.17556 11.109 9.47996C11.2047 9.52345 11.6355 9.61042 11.6355 9.69739C11.5876 9.08858 11.8269 8.52326 11.9226 7.91445Z" fill="#89896E"/>
<path d="M10.6785 11.6108C10.7742 11.089 10.6785 10.5671 10.487 10.0888C10.1999 9.52347 9.72129 9.00164 9.2427 8.52329C8.81197 8.08842 8.28552 7.65356 8.14194 7.08824C8.09408 6.87081 8.0941 6.69687 8.0941 6.60989L8.04623 6.65338C7.0412 7.87099 6.65832 9.56696 7.42406 10.9585C7.85479 11.7413 8.57268 12.2196 8.81198 12.3936C8.90769 12.4371 9.19484 12.698 9.86486 12.9589C9.96058 13.0024 10.3913 13.0893 10.3913 13.1763C10.3435 12.6545 10.5827 12.1326 10.6785 11.6108Z" fill="#89896E"/>
<path d="M12.5924 8.08844C12.8796 7.5666 13.3103 7.17523 13.8368 6.82734C14.4589 6.43596 15.2247 6.26202 15.9425 6.08807C16.6126 5.95761 17.3304 5.78367 17.809 5.3488C18.0005 5.21834 18.0962 5.0444 18.1919 4.91394V5.00091C18.144 6.60991 17.2826 8.34935 15.7032 9.17559C14.7939 9.65394 13.8846 9.69743 13.5496 9.74092C13.4539 9.74092 13.071 9.82789 12.3053 9.69743C12.2096 9.69743 11.7788 9.52348 11.731 9.61046C12.1138 9.21908 12.2574 8.65376 12.5924 8.08844Z" fill="#89896E"/>
<path d="M11.3004 11.7847C11.5876 11.3064 12.0183 10.915 12.5447 10.6541C13.1669 10.3062 13.9327 10.1323 14.6505 10.0018C15.3206 9.87135 16.0384 9.74089 16.517 9.34951C16.7085 9.21905 16.8042 9.0451 16.8999 8.95813C16.8999 8.95813 16.8999 9.00162 16.8999 9.04511C16.852 10.5236 15.9906 12.0891 14.4112 12.8719C13.5019 13.3068 12.5926 13.3502 12.2576 13.3937C12.1619 13.3937 11.779 13.4372 11.0133 13.3502C10.9175 13.3502 10.4868 13.2198 10.439 13.2633C10.8218 12.7849 11.0133 12.2631 11.3004 11.7847Z" fill="#89896E"/>
<path d="M10.3911 13.2198C11.9226 13.6547 13.5498 15.7421 11.6354 16.7422C12.8319 15.3942 11.3961 14.1765 10.3911 13.2198Z" fill="#89896E"/>
<path d="M10.3908 13.0893C10.0079 16.1769 7.61497 19.6558 3.83413 19.5253H2.87695C4.69559 18.3947 6.13135 16.6552 6.27493 14.6114C6.32279 14.046 6.27493 13.4372 6.22707 12.8719C6.6578 14.0026 6.70566 15.2637 6.32279 16.4378C5.89206 17.6119 5.12632 18.6556 4.07342 19.4818L3.88199 18.9165C7.37568 18.96 9.43361 15.829 10.3908 13.0893Z" fill="#89896E"/>
<path d="M3.30859 19.3513C7.23302 19.7427 11.1096 18.96 15.034 18.7425C11.4924 19.8297 6.85015 20.6124 3.30859 19.3513Z" fill="#89896E"/>
<path d="M12.6885 7.00125C12.4492 5.5662 12.8321 3.95721 13.7893 2.78308C13.2628 4.17464 12.9278 5.52272 12.6885 7.00125Z" fill="white"/>
<path d="M10.3909 13.1328C10.343 12.3936 10.1995 11.6543 9.67301 11.1324C9.09871 10.6541 8.57227 9.91483 8.57227 9.17557C8.90728 9.87135 9.338 10.3932 9.96017 10.915C10.5823 11.5673 10.6302 12.437 10.3909 13.1328Z" fill="white"/>
<path d="M11.6355 9.6974C11.5877 8.95813 11.4441 8.21886 10.9177 7.69702C10.3434 7.21868 9.81689 6.47941 9.81689 5.74014C10.1519 6.43592 10.5826 6.95776 11.2048 7.47959C11.7791 8.0884 11.827 8.95813 11.6355 9.6974Z" fill="white"/>
<path d="M10.3911 13.2198C10.774 12.5675 11.4919 11.9587 12.3533 11.9152C13.2148 11.9152 13.9327 11.8282 14.6984 11.5238C14.1241 12.0457 13.1669 12.2631 12.4012 12.2631C11.6833 12.2631 11.0133 12.7414 10.3911 13.2198Z" fill="white"/>
<path d="M11.6831 9.69743C12.066 9.04514 12.7838 8.43633 13.6453 8.39285C14.5068 8.39285 15.2247 8.30587 15.9904 8.00146C15.4161 8.5233 14.4589 8.74073 13.6932 8.74073C12.9274 8.74073 12.3053 9.1756 11.6831 9.69743Z" fill="white"/>
<path d="M19.8909 1.03871L0.5 18.658L1.10914 19.2114L20.5 1.59219L19.8909 1.03871Z" fill="#89896E"/>
</svg>
