<svg width="18" height="18" viewBox="0 0 18 18" fill="none" xmlns="http://www.w3.org/2000/svg">
<path d="M14.1248 8.56543C13.9288 8.56543 13.7329 8.51728 13.537 8.56543C12.9982 8.61358 12.4104 8.75802 11.8716 8.85432C11.3328 8.90247 10.696 8.90247 10.2552 8.56543C9.96129 8.37284 9.71639 8.0358 9.61842 7.69876C9.32453 7.07283 9.32453 6.3506 9.37351 5.67652C9.52046 4.6654 9.86333 3.60613 9.61842 2.64316C9.27555 1.3913 7.80608 0.861661 7.61015 0.765364C5.89578 0.0912838 3.9365 0.813513 2.76093 1.68019C-0.0800288 3.89502 0.115891 8.70988 1.38942 11.5988C1.48739 11.8877 1.87925 12.7544 2.66296 13.6692C4.03446 15.3062 5.89577 16.5581 7.95302 17.1359C9.81434 17.6655 11.8716 17.6174 13.7329 16.9914C14.9575 16.5581 16.084 15.8359 16.7698 14.7284C17.4066 13.7655 17.6515 12.5136 17.4066 11.4062C17.0147 9.91359 15.6922 8.70988 14.1248 8.56543Z" fill="#89896E"/>
<path d="M9.71614 8.75805C9.66716 8.75805 9.66717 8.75805 9.61819 8.75805C9.5692 8.75805 9.52021 8.8062 9.47123 8.8062C9.42225 8.8062 9.37327 8.75805 9.32429 8.7099C9.07938 8.46916 8.98142 8.13212 8.83447 7.79508C8.73651 7.60248 8.44262 7.0247 8.14872 7.121C7.90381 7.2173 8.00177 7.65063 8.00177 7.79508C8.05075 8.13212 8.1977 8.42101 8.34465 8.7099C8.73651 9.38398 9.2753 10.1062 9.96105 10.5395C10.108 10.6358 10.3039 10.7321 10.4999 10.6358C10.5978 10.5877 10.6468 10.4432 10.6468 10.2988C10.6958 9.81732 10.3529 9.19138 9.96105 8.85434C9.86309 8.8062 9.81411 8.8062 9.71614 8.75805Z" fill="white"/>
<path d="M2.51606 3.31729C1.14456 6.78399 1.87929 10.5396 4.23043 13.3803C4.52433 13.7655 4.91617 14.1507 5.25904 14.5841C4.86719 14.247 4.47533 13.91 4.08348 13.5248C1.48743 10.7803 0.654742 6.63954 2.51606 3.31729Z" fill="white"/>
</svg>
