<svg width="18" height="18" viewBox="0 0 18 18" fill="none" xmlns="http://www.w3.org/2000/svg">
<path d="M10.7788 10.2997C11.3508 9.46594 11.6367 8.48502 11.5795 7.50409C11.5795 6.32698 11.122 5.14987 10.6645 4.02181C10.2069 2.99183 9.74937 1.96186 9.92095 0.882836C9.97814 0.490465 10.1497 0.196185 10.2641 0C10.2641 0.0490463 10.1497 0.0490523 10.1497 0.0980987C7.46169 1.71663 5.45994 4.56132 5.68871 7.45505C5.8031 9.12263 6.66099 10.3488 6.94695 10.7902C7.06134 10.9373 7.3473 11.5259 8.31957 12.4087C8.43395 12.5068 9.12026 12.9482 9.06306 13.0954C9.40622 11.9673 10.2069 11.1826 10.7788 10.2997Z" fill="#89896E"/>
<path d="M8.31852 14.91C8.14694 13.9291 7.6894 12.9972 6.9459 12.2615C6.08801 11.3297 4.94416 10.643 3.74312 10.0054C2.65646 9.41685 1.51261 8.87734 0.940686 7.89642C0.711916 7.55309 0.597524 7.20977 0.540332 7.01358C0.540332 7.06263 0.483136 7.11167 0.483136 7.16072C-0.489137 9.85827 -0.031597 13.1444 2.19891 15.3024C3.51434 16.5776 5.00136 17.1171 5.57328 17.3133C5.74486 17.3624 6.37397 17.6566 7.80379 17.8528C7.97537 17.8528 8.77606 17.8528 8.89044 18C8.37571 16.97 8.4329 15.891 8.31852 14.91Z" fill="#89896E"/>
<path d="M9.52023 14.9101C9.69181 13.9291 10.2065 13.0463 10.95 12.2616C11.8651 11.3297 13.009 10.6921 14.21 10.0545C15.2967 9.51497 16.4405 8.97546 17.1268 7.99453C17.3556 7.65121 17.47 7.35693 17.5272 7.11169C17.5272 7.16074 17.5844 7.20979 17.5844 7.25883C18.4995 9.95638 17.9275 13.2425 15.6398 15.3515C14.3244 16.5776 12.7802 17.0681 12.2083 17.2643C12.0367 17.3133 11.3504 17.6076 9.97777 17.7548C9.80619 17.7548 9.0055 17.7548 8.89111 17.8528C9.40585 16.97 9.34866 15.94 9.52023 14.9101Z" fill="#89896E"/>
<path d="M9.06258 12.9972C7.91873 10.643 7.68996 7.94548 8.54785 5.49316C8.26189 7.99453 8.49065 10.5449 9.06258 12.9972Z" fill="white"/>
<path d="M8.77569 17.9509C8.31815 16.7738 7.68905 15.5476 6.43081 14.861C5.80169 14.5177 5.05818 14.2234 4.54345 13.782C3.97152 13.3406 3.51399 12.8011 3.22803 12.2125C4.14311 13.2915 5.28696 13.9782 6.65958 14.5667C8.0322 15.3024 8.66131 16.6757 8.77569 17.9509Z" fill="white"/>
<path d="M8.89014 17.902C9.29048 16.6268 10.1484 15.4006 11.6354 14.8611C13.1224 14.4687 14.3806 13.9783 15.4673 13.0464C15.0669 13.5859 14.495 14.0764 13.8659 14.4197C13.2368 14.8121 12.4933 15.0082 11.807 15.2044C10.4343 15.6949 9.57645 16.823 8.89014 17.902Z" fill="white"/>
</svg>
