<svg width="21" height="20" viewBox="0 0 21 20" fill="none" xmlns="http://www.w3.org/2000/svg">
<path d="M14.8778 2.91104L14.8318 2.85713C14.4631 2.37196 13.6797 2.47977 13.1728 2.42586C10.6382 2.21023 8.61058 3.82748 8.0115 6.79244C8.0115 6.79244 4.37096 6.95416 4.18663 11.4286C4.18663 11.5903 3.12672 11.8059 2.98848 11.8598C0.361754 12.8841 0.315668 16.442 0.638248 19.1374C0.684331 19.4609 0.776491 19.7844 1.00691 19.8922C1.14515 19.9461 1.2834 20 1.46773 20C2.43547 20 3.44931 19.9461 4.41705 19.6226C6.26036 19.0835 8.05759 17.4124 8.05759 15.0404C8.05759 15.1482 9.20965 14.8248 9.3479 14.7709C10.5921 14.2318 11.2834 12.6684 11.5138 11.2129C11.5599 10.9973 12.6198 10.6738 12.8041 10.566C15.0622 9.43395 15.6152 6.19945 15.2004 3.61185C15.0622 3.34231 15.0161 3.12667 14.8778 2.91104Z" fill="#89896E"/>
<path d="M8.67445 11.9004C9.29837 11.1054 9.38501 10.0108 8.86796 9.45548C8.35091 8.90015 7.42598 9.09439 6.80206 9.88933C6.17815 10.6843 6.09151 11.7789 6.60856 12.3342C7.1256 12.8896 8.05054 12.6953 8.67445 11.9004Z" fill="white"/>
<path d="M12.5021 7.45039C13.126 6.65545 13.2126 5.56083 12.6956 5.0055C12.1786 4.45017 11.2536 4.64441 10.6297 5.43935C10.0058 6.23429 9.91915 7.32891 10.4362 7.88424C10.9532 8.43957 11.8782 8.24533 12.5021 7.45039Z" fill="white"/>
<path d="M5.50209 16.4504C6.12601 15.6555 6.21264 14.5609 5.6956 14.0055C5.17855 13.4502 4.25362 13.6444 3.6297 14.4394C3.00579 15.2343 2.91915 16.3289 3.43619 16.8843C3.95324 17.4396 4.87817 17.2454 5.50209 16.4504Z" fill="white"/>
<path d="M13.5415 4.90566C13.8641 3.45014 14.924 2.21024 16.2143 1.9407C17.182 1.67116 18.242 1.9407 19.0714 2.64151C19.4862 2.91105 19.6244 3.61186 19.1636 3.98922C18.5645 4.42048 17.7811 4.42048 17.136 4.20485C16.9055 4.09703 16.4447 3.93531 16.4447 3.50404C17.0899 1.56334 19.0714 0.808625 20.5 0C19.4862 0.808625 18.288 1.45553 17.4585 2.53369C17.2281 2.85714 16.9977 3.18059 16.9055 3.55795C16.9516 3.66577 17.136 3.71967 17.2742 3.77358C17.7811 3.93531 18.4263 3.93531 18.9332 3.61186C19.3479 3.45014 18.5645 2.85714 18.0576 2.69542C16.3065 1.77897 14.2788 2.85714 13.5415 4.90566Z" fill="#89896E"/>
</svg>
